#!OML:ASF E:\motion texture\Top Level 1\Subject 1\Session 1\male.ASF
:FULLY-SPECIFIED
:DEGREES
114
root 17.1233 17.864 4.66541 120.558 -76.7598 -119.032
lowerback 1.33746 3.40014 9.31897
upperback -1.68777 4.72718 2.77654
thorax -1.99012 2.18693 -2.43783
lowerneck -19.5433 -6.78008 -8.82881
upperneck 15.4925 -8.73936 9.41031
head 8.8803 -3.70901 3.44491
rclavicle 1.48032e-014 -1.21259e-014
rhumerus -13.9846 16.505 -88.7569
rradius 69.0036
rwrist -3.06716
rhand -10.4865 -9.70759
rfingers 7.12502
rthumb 15.5151 -39.1051
lclavicle 1.48032e-014 -1.21259e-014
lhumerus -56.8027 11.9321 57.8921
lradius 33.1176
lwrist -11.8243
lhand -6.13448 6.3205
lfingers 7.12502
lthumb 19.7031 35.342
rfemur 8.42685 7.97342 37.9971
rtibia 22.2153
rfoot -11.2938 -6.28918
rtoes -3.9018
lfemur -71.2475 13.5116 -8.53781
ltibia 74.9609
lfoot 384.507 -2.88742
ltoes -2.17469
115
root 16.9624 17.8446 4.68042 121.937 -76.6715 -120.095
lowerback 1.01518 3.44293 9.32804
upperback -1.81137 4.75137 2.74478
thorax -1.9316 2.19706 -2.45844
lowerneck -19.5077 -6.71096 -8.77223
upperneck 15.5247 -8.65324 9.35086
head 8.8708 -3.67217 3.42917
rclavicle 2.66931e-014 2.54444e-014
rhumerus -14.7462 16.4066 -88.8947
rradius 68.3006
rwrist -2.9135
rhand -10.4674 -9.77791
rfingers 7.12502
rthumb 15.5335 -39.174
lclavicle 2.66931e-014 2.54444e-014
lhumerus -56.7795 11.5668 58.9778
lradius 33.9073
lwrist -11.3673
lhand -6.24881 6.34408
lfingers 7.12502
lthumb 19.5932 35.3768
rfemur 8.71497 8.05057 37.74
rtibia 22.104
rfoot -11.3639 -5.90157
rtoes -4.42881
lfemur -68.9673 13.8285 -8.27476
ltibia 72.5235
lfoot 385.035 -2.78603
ltoes -1.44887
116
root 16.7973 17.8239 4.69594 123.272 -76.5963 -121.127
lowerback 0.693634 3.47713 9.3207
upperback -1.94343 4.76429 2.71561
thorax -1.88501 2.201 -2.46763
lowerneck -19.4714 -6.63863 -8.71699
upperneck 15.5794 -8.56341 9.28653
head 8.8684 -3.63398 3.4126
rclavicle -4.15584e-015 -3.57812e-014
rhumerus -15.5823 16.2705 -89.0337
rradius 67.5925
rwrist -2.86616
rhand -10.4033 -9.87969
rfingers 7.12502
rthumb 15.5953 -39.271
lclavicle -4.15584e-015 -3.57812e-014
lhumerus -56.7569 11.2126 60.0907
lradius 34.7259
lwrist -10.8945
lhand -6.38375 6.44848
lfingers 7.12502
lthumb 19.4634 35.4943
rfemur 9.01993 8.10533 37.4513
rtibia 21.9963
rfoot -11.4047 -5.48121
rtoes -5.01094
lfemur -66.5661 14.0741 -7.99429
ltibia 70.064
lfoot 385.38 -2.45683
ltoes -0.725622
117
root 16.6274 17.8018 4.71213 124.546 -76.541 -122.107
lowerback 0.35922 3.49985 9.29365
upperback -2.08453 4.76042 2.6915
thorax -1.84436 2.19626 -2.4603
lowerneck -19.428 -6.56229 -8.66847
upperneck 15.6563 -8.46834 9.22024
head 8.87212 -3.59397 3.39742
rclavicle -1.81453e-014 1.39149e-015
rhumerus -16.5024 16.0925 -89.1692
rradius 66.8889
rwrist -2.91929
rhand -10.317 -10.0114
rfingers 7.12502
rthumb 15.6783 -39.3961
lclavicle -1.81453e-014 1.39149e-015
lhumerus -56.7352 10.8801 61.228
lradius 35.559
lwrist -10.4317
lhand -6.55585 6.61944
lfingers 7.12502
lthumb 19.2979 35.6819
rfemur 9.3353 8.13369 37.1289
rtibia 21.8953
rfoot -11.4011 -5.03389
rtoes -5.6902
lfemur -64.0541 14.2189 -7.69772
ltibia 67.591
lfoot 385.572 -2.02626
ltoes -0.114261
118
root 16.4527 17.7783 4.72908 125.704 -76.5181 -122.979
lowerback 0.00159288 3.50724 9.2446
upperback -2.22759 4.73296 2.67275
thorax -1.79734 2.18024 -2.43415
lowerneck -19.3913 -6.48484 -8.62286
upperneck 15.7545 -8.37117 9.14923
head 8.8841 -3.55327 3.38134
rclavicle 5.4585e-014 4.77083e-015
rhumerus -17.4958 15.8603 -89.2886
rradius 66.1953
rwrist -3.03665
rhand -10.1803 -10.1817
rfingers 7.12502
rthumb 15.81 -39.5561
lclavicle 5.4585e-014 4.77083e-015
lhumerus -56.6896 10.5874 62.3886
lradius 36.3858
lwrist -9.99863
lhand -6.76539 6.85692
lfingers 7.12502
lthumb 19.0964 35.9394
rfemur 9.64354 8.1319 36.7707
rtibia 21.8383
rfoot -11.3616 -4.55705
rtoes -6.37182
lfemur -61.4478 14.2236 -7.38756
ltibia 65.1197
lfoot 385.673 -1.61142
ltoes 0.416521
119
root 16.2725 17.7536 4.74696 126.763 -76.5304 -123.765
lowerback -0.384143 3.50185 9.17523
upperback -2.36962 4.68481 2.65532
thorax -1.7372 2.15474 -2.39407
lowerneck -19.3551 -6.40851 -8.58271
upperneck 15.8702 -8.27678 9.08372
head 8.90304 -3.51358 3.36767
rclavicle -4.90128e-015 7.95139e-015
rhumerus -18.5732 15.5579 -89.3907
rradius 65.5183
rwrist -3.16226
rhand -10.0438 -10.3362
rfingers 7.12502
rthumb 15.9414 -39.7002
lclavicle -4.90128e-015 7.95139e-015
lhumerus -56.61 10.3234 63.5755
lradius 37.1932
lwrist -9.60631
lhand -7.03534 7.13737
lfingers 7.12502
lthumb 18.8368 36.2453
rfemur 9.93843 8.10172 36.3746
rtibia 21.8412
rfoot -11.2609 -4.06112
rtoes -7.10887
lfemur -58.7481 14.0666 -7.06758
ltibia 62.6563
lfoot 385.744 -1.33062
ltoes 0.812428
120
root 16.0862 17.728 4.76608 127.744 -76.5791 -124.495
lowerback -0.798004 3.48623 9.08402
upperback -2.50602 4.61935 2.63851
thorax -1.65876 2.12183 -2.34003
lowerneck -19.3169 -6.3364 -8.54377
upperneck 15.9988 -8.18968 9.02007
head 8.927 -3.47724 3.35381
rclavicle 6.61332e-014 6.0033e-014
rhumerus -19.7315 15.1646 -89.4679
rradius 64.8577
rwrist -3.24792
rhand -9.94461 -10.4683
rfingers 7.12502
rthumb 16.037 -39.8246
lclavicle 6.61332e-014 6.0033e-014
lhumerus -56.4885 10.0814 64.7972
lradius 37.9747
lwrist -9.25298
lhand -7.35075 7.40719
lfingers 7.12502
lthumb 18.5335 36.5443
rfemur 10.2086 8.0463 35.9346
rtibia 21.9428
rfoot -11.0906 -3.54045
rtoes -7.86719
lfemur -55.9517 13.7277 -6.74653
ltibia 60.2069
lfoot 385.563 -1.2757
ltoes 0.214181
